<svg width="28" height="28" viewBox="0 0 28 28" fill="none" xmlns="http://www.w3.org/2000/svg">
<path d="M14.0001 0C6.26903 0 0 6.42658 0 14.3544C0 20.6967 4.01144 26.0773 9.57412 27.9753C10.2738 28.1082 10.5307 27.664 10.5307 27.2848C10.5307 26.9425 10.5176 25.8117 10.5117 24.6123C6.61677 25.4806 5.79492 22.9186 5.79492 22.9186C5.15808 21.2594 4.24048 20.8184 4.24048 20.8184C2.97031 19.9274 4.33622 19.9456 4.33622 19.9456C5.7421 20.047 6.48238 21.4249 6.48238 21.4249C7.73102 23.6194 9.75749 22.9849 10.5564 22.6183C10.682 21.6904 11.0449 21.0572 11.4452 20.6988C8.33569 20.3357 5.06672 19.1049 5.06672 13.6047C5.06672 12.0376 5.61364 10.757 6.50928 9.75183C6.3639 9.39022 5.88473 7.9303 6.64488 5.95307C6.64488 5.95307 7.82051 5.56726 10.4959 7.42448C11.6126 7.10633 12.8103 6.94692 14.0001 6.94152C15.1898 6.94692 16.3884 7.10633 17.5073 7.42448C20.1795 5.56726 21.3535 5.95307 21.3535 5.95307C22.1155 7.9303 21.6361 9.39022 21.4907 9.75183C22.3883 10.757 22.9315 12.0375 22.9315 13.6047C22.9315 19.118 19.6564 20.332 16.539 20.6873C17.0411 21.1328 17.4885 22.0064 17.4885 23.3455C17.4885 25.2661 17.4723 26.812 17.4723 27.2848C17.4723 27.6668 17.7243 28.1144 18.434 27.9734C23.9936 26.0732 28 20.6945 28 14.3544C28 6.42658 21.7318 0 14.0001 0Z" fill="#24292F"/>
<path d="M5.24292 20.4478C5.21218 20.519 5.1026 20.5404 5.00301 20.4916C4.90144 20.4447 4.84435 20.3474 4.87729 20.2758C4.90748 20.2024 5.01706 20.182 5.11841 20.2313C5.22019 20.278 5.27817 20.3762 5.24292 20.4478M5.93159 21.0778C5.86483 21.1412 5.73427 21.1118 5.64567 21.0114C5.55409 20.9114 5.53696 20.7776 5.60471 20.7131C5.67356 20.6497 5.80015 20.6793 5.89195 20.7795C5.98352 20.8807 6.00131 21.0137 5.93148 21.0779M6.40406 21.8838C6.31819 21.9449 6.17787 21.8876 6.09123 21.76C6.00548 21.6324 6.00548 21.4793 6.0931 21.418C6.18006 21.3566 6.31819 21.4118 6.40603 21.5384C6.49168 21.6682 6.49168 21.8213 6.40395 21.8839M7.20296 22.8174C7.12621 22.9041 6.96283 22.8809 6.84315 22.7625C6.72083 22.6468 6.68668 22.4825 6.76365 22.3957C6.84128 22.3088 7.00565 22.3332 7.12621 22.4507C7.24776 22.5662 7.28487 22.7317 7.20307 22.8174M8.23552 23.1327C8.20181 23.245 8.04436 23.2961 7.88581 23.2484C7.72747 23.1992 7.62382 23.0675 7.65578 22.9539C7.68872 22.8407 7.84683 22.7875 8.00659 22.8386C8.1647 22.8876 8.26857 23.0183 8.23563 23.1327M9.41082 23.2663C9.41477 23.3847 9.28027 23.4829 9.11381 23.485C8.94637 23.4887 8.81098 23.3929 8.80923 23.2765C8.80923 23.157 8.94066 23.0597 9.10799 23.0569C9.27445 23.0535 9.41082 23.1486 9.41082 23.2663M10.5653 23.2209C10.5852 23.3364 10.4695 23.4551 10.3043 23.4866C10.1418 23.517 9.99133 23.4457 9.97058 23.3312C9.95038 23.2128 10.0683 23.0943 10.2305 23.0635C10.3961 23.034 10.5442 23.1035 10.5653 23.2209" fill="#24292F"/>
</svg>
