<svg width="28" height="28" viewBox="0 0 28 28" fill="none" xmlns="http://www.w3.org/2000/svg">
<path fill-rule="evenodd" clip-rule="evenodd" d="M27.44 14.3182C27.44 13.3255 27.3509 12.371 27.1855 11.4546H14V16.87H21.5345C21.21 18.62 20.2236 20.1028 18.7409 21.0955V24.6082H23.2655C25.9127 22.171 27.44 18.5819 27.44 14.3182Z" fill="#4285F4"/>
<path fill-rule="evenodd" clip-rule="evenodd" d="M14 27.9999C17.78 27.9999 20.9491 26.7463 23.2655 24.6081L18.7409 21.0954C17.4873 21.9354 15.8836 22.4317 14 22.4317C10.3536 22.4317 7.26727 19.969 6.16636 16.6599H1.48909V20.2872C3.79273 24.8626 8.52727 27.9999 14 27.9999Z" fill="#34A853"/>
<path fill-rule="evenodd" clip-rule="evenodd" d="M6.16636 16.6599C5.88636 15.8199 5.72727 14.9226 5.72727 13.9999C5.72727 13.0772 5.88636 12.1799 6.16636 11.3399V7.71265H1.48909C0.540909 9.60265 0 11.7408 0 13.9999C0 16.259 0.540909 18.3972 1.48909 20.2872L6.16636 16.6599Z" fill="#FBBC05"/>
<path fill-rule="evenodd" clip-rule="evenodd" d="M14 5.56818C16.0555 5.56818 17.9009 6.27455 19.3518 7.66182L23.3673 3.64636C20.9427 1.38727 17.7736 0 14 0C8.52727 0 3.79273 3.13727 1.48909 7.71273L6.16636 11.34C7.26727 8.03091 10.3536 5.56818 14 5.56818Z" fill="#EA4335"/>
</svg>
